<?xml version="1.0" standalone="no"?>
<!DOCTYPE svg PUBLIC "-//W3C//DTD SVG 20010904//EN"
 "http://www.w3.org/TR/2001/REC-SVG-20010904/DTD/svg10.dtd">
<svg version="1.0" xmlns="http://www.w3.org/2000/svg"
 width="512.000000pt" height="512.000000pt" viewBox="0 0 512.000000 512.000000"
 preserveAspectRatio="xMidYMid meet">

<g transform="translate(0.000000,512.000000) scale(0.100000,-0.100000)"
fill="#000000" stroke="none">
<path d="M4203 4960 c-95 -55 -177 -100 -183 -100 -6 0 -27 11 -48 23 -59 38
-167 77 -256 94 -148 28 -340 2 -469 -64 -101 -51 -672 -385 -695 -406 -35
-32 -69 -95 -83 -152 -6 -27 -13 -51 -14 -53 -1 -1 -114 62 -251 141 -356 205
-351 202 -444 233 -75 25 -100 28 -220 28 -157 1 -218 -12 -352 -76 l-87 -41
-178 103 c-107 61 -189 103 -206 103 -55 1 -92 -75 -58 -117 19 -22 427 -256
447 -256 10 0 48 18 85 41 185 111 405 129 588 48 74 -33 1124 -640 1154 -668
84 -77 35 -217 -81 -229 -59 -5 -35 -16 -402 196 -306 178 -334 188 -371 143
-25 -31 -24 -65 4 -95 12 -13 258 -160 547 -326 315 -181 538 -315 558 -336
27 -28 32 -41 32 -81 0 -60 -16 -91 -59 -120 -69 -47 -83 -41 -436 162 -202
117 -330 185 -348 185 -57 0 -92 -85 -49 -123 9 -8 159 -97 332 -197 173 -100
336 -195 362 -212 87 -55 100 -161 27 -222 -36 -31 -69 -40 -112 -33 -18 3
-297 156 -619 341 -409 234 -596 336 -617 336 -53 0 -90 -71 -58 -113 6 -9
223 -138 482 -288 259 -149 482 -283 498 -297 89 -85 27 -232 -99 -232 -36 0
-274 134 -1270 712 -115 66 -151 73 -183 32 -50 -64 -33 -81 252 -245 139 -79
264 -156 279 -170 34 -33 51 -94 38 -139 -20 -69 -101 -120 -167 -104 -15 4
-174 91 -352 193 -300 172 -331 192 -406 266 -132 131 -188 275 -184 471 2 78
0 97 -16 114 -27 30 -417 250 -443 250 -31 0 -72 -43 -72 -75 0 -38 28 -60
211 -165 l166 -95 6 -105 c6 -122 30 -208 90 -325 32 -62 62 -101 137 -175 93
-93 103 -100 425 -285 182 -104 355 -198 385 -208 40 -14 69 -17 107 -13 l52
6 4 -562 c3 -492 6 -572 21 -630 22 -86 47 -118 90 -118 39 0 76 35 76 71 0
13 -8 47 -17 74 -15 44 -17 119 -21 653 l-3 603 30 61 c17 34 31 74 31 89 0
15 4 30 8 33 5 3 53 -21 108 -52 l99 -57 5 -330 c3 -182 9 -337 13 -347 22
-43 103 -43 126 1 7 12 11 122 11 300 0 155 3 281 6 281 3 0 43 -22 90 -50 46
-27 107 -61 134 -75 l50 -25 0 -206 c0 -126 4 -213 11 -225 25 -48 105 -44
128 7 7 16 11 97 11 223 l0 198 41 12 c77 23 178 146 179 216 0 35 15 49 39
36 21 -12 21 -15 21 -344 1 -245 4 -336 13 -348 20 -26 55 -40 82 -33 54 13
55 20 55 381 0 293 2 333 15 333 53 0 150 82 184 155 37 80 37 130 -3 260 -8
26 61 76 75 53 5 -7 9 -361 9 -786 l0 -773 26 -26 c20 -20 31 -24 57 -19 63
13 62 5 67 359 6 357 5 355 73 398 24 15 44 19 80 16 57 -5 95 -30 120 -78 16
-31 17 -67 15 -444 l-3 -410 -31 -85 c-16 -47 -47 -112 -68 -143 -50 -76 -160
-175 -232 -211 -111 -55 -104 -32 -104 -321 0 -250 0 -252 23 -273 33 -31 80
-29 106 4 20 25 21 39 21 234 l0 208 53 30 c167 95 302 269 359 468 22 77 23
90 23 519 l0 440 -27 51 c-69 132 -212 192 -354 149 -27 -8 -50 -15 -51 -15
-2 0 -3 46 -3 103 l1 102 245 140 c135 77 253 148 261 158 22 23 21 72 -2 97
-35 39 -69 27 -289 -100 -114 -66 -210 -120 -212 -120 -2 0 -4 71 -4 158 l0
157 103 59 c129 75 147 91 147 132 0 36 -37 74 -73 74 -11 0 -67 -27 -124 -61
-124 -72 -133 -70 -131 25 1 64 -14 123 -41 165 -9 14 -11 26 -6 28 6 2 41 23
80 46 80 48 99 81 74 125 -8 15 -27 31 -42 36 -29 11 -46 4 -182 -73 l-70 -39
-97 57 -97 57 39 37 c22 20 51 59 64 86 21 40 37 55 90 85 69 39 86 58 86 100
0 55 -78 87 -126 51 -27 -21 -31 -19 -53 23 -23 45 -81 100 -139 134 l-43 25
33 20 c18 11 125 74 238 138 113 65 213 125 223 133 24 21 23 84 -3 107 -11
10 -33 18 -48 18 -17 0 -123 -55 -282 -148 -218 -126 -262 -149 -305 -152 -59
-5 -103 18 -136 69 -25 41 -22 113 8 153 29 40 655 399 752 432 183 61 376 34
546 -77 34 -22 70 -40 81 -40 23 0 415 224 440 251 41 45 7 119 -55 119 -15 0
-100 -43 -198 -100z"/>
<path d="M4823 3832 c-110 -64 -211 -126 -222 -136 -19 -17 -21 -30 -21 -125
0 -118 -13 -179 -59 -277 -59 -126 -146 -214 -298 -303 -76 -44 -93 -63 -93
-105 0 -29 42 -66 74 -66 26 0 160 77 239 138 167 127 287 367 287 571 l0 76
180 103 c182 105 210 128 210 170 0 30 -42 72 -72 72 -13 0 -114 -53 -225
-118z"/>
<path d="M1876 3589 c-29 -23 -36 -73 -13 -101 20 -27 189 -118 217 -118 56 0
90 75 53 118 -22 25 -191 122 -214 122 -9 0 -28 -9 -43 -21z"/>
<path d="M1820 780 c-12 -12 -20 -33 -20 -54 0 -28 9 -42 51 -80 29 -26 76
-61 105 -79 l54 -32 0 -211 c0 -199 1 -213 21 -238 27 -34 77 -36 107 -3 21
23 22 30 22 271 0 152 -4 255 -10 267 -6 10 -37 32 -69 49 -32 16 -87 52 -121
79 -70 56 -107 64 -140 31z"/>
</g>
</svg>
