<?xml version="1.0" standalone="no"?>
<!DOCTYPE svg PUBLIC "-//W3C//DTD SVG 20010904//EN"
 "http://www.w3.org/TR/2001/REC-SVG-20010904/DTD/svg10.dtd">
<svg version="1.0" xmlns="http://www.w3.org/2000/svg"
 width="512.000000pt" height="512.000000pt" viewBox="0 0 512.000000 512.000000"
 preserveAspectRatio="xMidYMid meet">

<g transform="translate(0.000000,512.000000) scale(0.100000,-0.100000)"
fill="#000000" stroke="none">
<path d="M2852 4819 c-252 -32 -470 -212 -555 -457 -53 -156 -47 -342 18 -488
l22 -51 -704 -809 -705 -810 -67 18 c-258 67 -563 -42 -716 -257 -181 -253
-178 -572 8 -822 26 -34 72 -83 104 -108 55 -44 185 -115 229 -127 13 -3 34
-30 55 -69 52 -99 174 -215 279 -266 116 -57 194 -75 315 -75 265 2 489 141
605 377 52 105 73 190 73 301 0 100 -13 167 -50 261 l-25 62 573 658 c315 362
633 726 705 809 l132 151 74 -19 c104 -27 262 -21 374 16 216 70 397 266 449
486 19 83 19 237 -1 320 -49 209 -212 396 -414 476 -60 23 -68 30 -93 77 -75
143 -223 265 -389 321 -41 14 -197 38 -223 35 -5 -1 -39 -5 -73 -10z m240
-219 c122 -37 231 -136 291 -263 19 -40 41 -77 48 -83 8 -6 46 -21 84 -32 127
-38 227 -119 289 -233 97 -177 66 -412 -73 -563 -43 -47 -141 -105 -214 -128
-95 -28 -224 -22 -318 16 -79 31 -98 32 -132 6 -23 -18 -1445 -1645 -1520
-1739 -44 -56 -44 -71 7 -173 32 -65 49 -114 55 -161 32 -234 -103 -451 -327
-527 -72 -24 -203 -29 -274 -10 -130 35 -253 139 -313 267 -21 43 -45 82 -54
88 -9 5 -50 21 -91 35 -351 120 -453 543 -193 803 133 134 315 171 510 105
l95 -32 34 19 c31 18 1529 1729 1554 1775 17 33 11 67 -25 132 -109 200 -80
419 76 580 126 129 311 173 491 118z"/>
<path d="M3636 2774 c-320 -58 -627 -258 -808 -528 -140 -209 -203 -402 -214
-651 -28 -624 409 -1166 1031 -1281 113 -21 320 -21 435 0 570 103 994 585
1026 1166 35 625 -412 1187 -1030 1295 -110 19 -332 18 -440 -1z m484 -213
c129 -35 307 -118 317 -147 5 -16 -105 -90 -201 -135 -177 -82 -392 -105 -581
-60 -99 24 -260 98 -339 157 -56 42 -58 39 60 98 94 47 165 73 265 96 115 27
367 22 479 -9z m-885 -370 c275 -190 614 -244 940 -150 101 30 258 109 350
179 l80 60 33 -33 c92 -89 196 -282 239 -445 23 -85 26 -117 26 -257 1 -142
-2 -171 -26 -260 -44 -164 -156 -366 -250 -453 l-25 -24 -64 49 c-202 157
-423 233 -678 233 -246 0 -472 -74 -665 -220 l-79 -59 -24 22 c-93 85 -206
291 -249 452 -23 88 -26 119 -26 260 0 141 3 172 26 257 43 162 131 328 230
435 l39 43 27 -20 c14 -12 58 -42 96 -69z m849 -1325 c94 -26 198 -73 272
-122 106 -70 105 -64 22 -112 -159 -90 -326 -133 -518 -133 -193 0 -352 41
-518 134 l-73 41 33 28 c85 70 244 144 373 174 82 18 329 13 409 -10z"/>
</g>
</svg>
