<?xml version="1.0" standalone="no"?>
<!DOCTYPE svg PUBLIC "-//W3C//DTD SVG 20010904//EN"
 "http://www.w3.org/TR/2001/REC-SVG-20010904/DTD/svg10.dtd">
<svg version="1.0" xmlns="http://www.w3.org/2000/svg"
 width="512.000000pt" height="512.000000pt" viewBox="0 0 512.000000 512.000000"
 preserveAspectRatio="xMidYMid meet">

<g transform="translate(0.000000,512.000000) scale(0.100000,-0.100000)"
fill="#000000" stroke="none">
<path d="M1411 4946 c-51 -28 -50 -21 -51 -623 l0 -563 -360 0 c-392 0 -404
-2 -428 -55 -17 -36 -17 -3068 -1 -3147 40 -191 203 -352 394 -388 44 -8 461
-10 1520 -8 1364 3 1464 4 1520 21 212 63 383 203 476 392 81 166 74 -49 77
2250 2 1534 -1 2057 -9 2078 -25 61 73 57 -1591 57 -1245 -1 -1527 -3 -1547
-14z m2949 -2143 c0 -1710 -2 -1966 -15 -2022 -35 -146 -143 -286 -274 -355
-131 -69 -66 -66 -1404 -66 l-1207 0 25 38 c14 21 35 65 48 98 l22 59 3 2103
2 2102 1400 0 1400 0 0 -1957z m-3002 -730 l-3 -1488 -28 -57 c-53 -107 -144
-163 -267 -163 -123 0 -214 56 -267 163 l-28 57 -3 1488 -2 1487 300 0 300 0
-2 -1487z"/>
<path d="M1811 4546 c-49 -27 -50 -35 -51 -434 0 -405 1 -416 55 -440 20 -9
299 -12 1146 -12 1217 0 1161 -3 1187 55 17 37 17 753 0 790 -26 58 30 55
-1190 55 -913 -1 -1127 -3 -1147 -14z m2149 -436 l0 -250 -1000 0 -1000 0 0
250 0 250 1000 0 1000 0 0 -250z"/>
<path d="M1811 3446 c-50 -28 -50 -32 -51 -483 0 -454 1 -463 51 -489 41 -21
1057 -21 1098 0 50 26 51 36 51 487 0 456 -1 462 -55 487 -40 18 -1061 16
-1094 -2z m949 -486 l0 -300 -400 0 -400 0 0 300 0 300 400 0 400 0 0 -300z"/>
<path d="M3211 3446 c-67 -37 -65 -143 4 -174 19 -9 141 -12 445 -12 450 0
460 1 486 51 27 52 8 115 -41 137 -39 18 -861 16 -894 -2z"/>
<path d="M3211 3046 c-67 -37 -65 -143 4 -174 19 -9 141 -12 445 -12 450 0
460 1 486 51 27 52 8 115 -41 137 -39 18 -861 16 -894 -2z"/>
<path d="M3211 2646 c-67 -37 -65 -143 4 -174 37 -17 853 -17 890 0 29 13 55
55 55 88 0 33 -26 75 -55 88 -39 18 -861 16 -894 -2z"/>
<path d="M1811 2246 c-67 -37 -65 -143 4 -174 20 -9 299 -12 1146 -12 950 0
1124 2 1148 14 66 35 66 137 0 172 -40 20 -2261 21 -2298 0z"/>
<path d="M1811 1846 c-67 -37 -65 -143 4 -174 37 -17 853 -17 890 0 29 13 55
55 55 88 0 33 -26 75 -55 88 -39 18 -861 16 -894 -2z"/>
<path d="M3011 1846 c-50 -28 -50 -32 -51 -483 0 -454 1 -463 51 -489 41 -21
1057 -21 1098 0 50 26 51 36 51 487 0 456 -1 462 -55 487 -40 18 -1061 16
-1094 -2z m949 -486 l0 -300 -400 0 -400 0 0 300 0 300 400 0 400 0 0 -300z"/>
<path d="M1811 1446 c-67 -37 -65 -143 4 -174 37 -17 853 -17 890 0 29 13 55
55 55 88 0 33 -26 75 -55 88 -39 18 -861 16 -894 -2z"/>
<path d="M1811 1046 c-67 -37 -65 -143 4 -174 37 -17 853 -17 890 0 29 13 55
55 55 88 0 33 -26 75 -55 88 -39 18 -861 16 -894 -2z"/>
</g>
</svg>
